<?xml version="1.0" standalone="no"?><svg xmlns:xlink="http://www.w3.org/1999/xlink" xmlns="http://www.w3.org/2000/svg" viewBox="0 0 1000 562.5012972815897" preserveAspectRatio="xMaxYMax slice"><g transform="scale(0.6918835144915002)"><rect x="0" y="0" width="1445.3333333333333" height="813" fill="#ffffff"/><g transform="translate(0,0) scale(4.5165) rotate(0)"><rect width="20" height="10" fill="#9addf0"/></g><rect x="90.33" y="0" width="90.33" height="90.33" fill="#ffffff"/><rect x="180.67" y="0" width="90.33" height="90.33" fill="#72cfeb"/><rect x="271" y="0" width="90.33" height="90.33" fill="#ffffff"/><polygon points="451.65999999999997,0 451.65999999999997,90.33 361.33,90.33" fill="#93daef"/><rect x="451.67" y="0" width="90.33" height="90.33" fill="#ffffff"/><rect x="542" y="0" width="90.33" height="90.33" fill="#ffffff"/><g transform="translate(632.33,0) scale(4.5165) rotate(0)"><rect width="20" height="10" fill="#ffffff"/></g><rect x="722.67" y="0" width="90.33" height="90.33" fill="#ffffff"/><g transform="translate(813,0) scale(4.5165) rotate(0)"><rect width="20" height="10" fill="#ffffff"/></g><g transform="translate(903.33,0) scale(4.5165) rotate(0)"><rect width="20" height="10" fill="#33bae2"/></g><rect x="993.67" y="0" width="90.33" height="90.33" fill="#ffffff"/><rect x="1084" y="0" width="90.33" height="90.33" fill="#69cce9"/><polygon points="1174.33,0 1264.6599999999999,0 1174.33,90.33" fill="#ffffff"/><rect x="1264.67" y="0" width="90.33" height="90.33" fill="#ffffff"/><rect x="1355" y="0" width="90.33" height="90.33" fill="#2fb8e1"/><g transform="translate(0,90.33) scale(4.5165) rotate(0)"><rect width="20" height="10" fill="#cbcdcf"/></g><rect x="90.33" y="90.33" width="90.33" height="90.33" fill="#979a9e"/><polygon points="271,90.33 271,180.66 180.67,180.66" fill="#b2b5b7"/><g transform="translate(271,90.33) scale(4.5165) rotate(0)"><rect width="20" height="10" fill="#3dbde3"/></g><polygon points="451.65999999999997,90.33 451.65999999999997,180.66 361.33,180.66" fill="#8cd8ee"/><rect x="451.67" y="90.33" width="90.33" height="90.33" fill="#ffffff"/><rect x="542" y="90.33" width="90.33" height="90.33" fill="#f0f1f1"/><rect x="632.33" y="90.33" width="90.33" height="90.33" fill="#dcddde"/><polygon points="722.67,90.33 813,180.66 722.67,180.66" fill="#81d4ed"/><rect x="813" y="90.33" width="90.33" height="90.33" fill="#55c5e6"/><g transform="translate(903.33,90.33) scale(4.5165) rotate(0)"><rect width="20" height="10" fill="#ffffff"/></g><polygon points="993.67,90.33 1084,90.33 993.67,180.66" fill="#61c9e8"/><polygon points="1174.33,90.33 1174.33,180.66 1084,180.66" fill="#ffffff"/><g transform="translate(1174.33,90.33) scale(4.5165) rotate(0)"><rect width="20" height="10" fill="#acafb2"/></g><rect x="1264.67" y="90.33" width="90.33" height="90.33" fill="#fbfefe"/><g transform="translate(1355,90.33) scale(4.5165) rotate(0)"><rect width="20" height="10" fill="#ffffff"/></g><g transform="translate(0,180.67) scale(4.5165) rotate(0)"><rect width="20" height="10" fill="#daf2fa"/></g><g transform="translate(90.33,180.67) scale(4.5165) rotate(0)"><rect width="20" height="10" fill="#cbedf8"/></g><g transform="translate(180.67,180.67) scale(4.5165) rotate(0)"><rect width="20" height="10" fill="#e0e1e2"/></g><g transform="translate(271,180.67) scale(4.5165) rotate(0)"><rect width="20" height="10" fill="#ffffff"/></g><polygon points="361.33,180.67 451.65999999999997,180.67 361.33,271" fill="#8a8e92"/><polygon points="451.67,180.67 542,180.67 451.67,271" fill="#c9cbcd"/><rect x="542" y="180.67" width="90.33" height="90.33" fill="#ffffff"/><g transform="translate(632.33,180.67) scale(4.5165) rotate(0)"><rect width="20" height="10" fill="#a2a5a8"/></g><polygon points="813,180.67 813,271 722.67,271" fill="#c7ecf7"/><rect x="813" y="180.67" width="90.33" height="90.33" fill="#ffffff"/><g transform="translate(903.33,180.67) scale(4.5165) rotate(0)"><rect width="20" height="10" fill="#ffffff"/></g><g transform="translate(993.67,180.67) scale(4.5165) rotate(0)"><rect width="20" height="10" fill="#b4e5f4"/></g><g transform="translate(1084,180.67) scale(4.5165) rotate(0)"><rect width="20" height="10" fill="#a1a4a7"/></g><polygon points="1174.33,180.67 1264.6599999999999,180.67 1264.6599999999999,271" fill="#ffffff"/><rect x="1264.67" y="180.67" width="90.33" height="90.33" fill="#ffffff"/><rect x="1355" y="180.67" width="90.33" height="90.33" fill="#33b9e2"/><g transform="translate(0,271) scale(4.5165) rotate(0)"><rect width="20" height="10" fill="#e8e8e9"/></g><g transform="translate(90.33,271) scale(4.5165) rotate(0)"><rect width="20" height="10" fill="#d2d4d5"/></g><rect x="180.67" y="271" width="90.33" height="90.33" fill="#c7ecf7"/><g transform="translate(271,271) scale(4.5165) rotate(0)"><rect width="20" height="10" fill="#ffffff"/></g><rect x="361.33" y="271" width="90.33" height="90.33" fill="#ffffff"/><polygon points="451.67,271 542,271 451.67,361.33" fill="#84d5ed"/><g transform="translate(542,271) scale(4.5165) rotate(0)"><rect width="20" height="10" fill="#ffffff"/></g><polygon points="722.6600000000001,271 722.6600000000001,361.33 632.33,361.33" fill="#ffffff"/><polygon points="722.67,271 813,361.33 722.67,361.33" fill="#49c1e5"/><g transform="translate(813,271) scale(4.5165) rotate(0)"><rect width="20" height="10" fill="#cecfd1"/></g><g transform="translate(903.33,271) scale(4.5165) rotate(0)"><rect width="20" height="10" fill="#acafb2"/></g><polygon points="1084,271 1084,361.33 993.67,361.33" fill="#ffffff"/><rect x="1084" y="271" width="90.33" height="90.33" fill="#999ca0"/><polygon points="1174.33,271 1264.6599999999999,271 1264.6599999999999,361.33" fill="#b5b8ba"/><polygon points="1264.67,271 1355,361.33 1264.67,361.33" fill="#66cbe9"/><polygon points="1445.33,271 1445.33,361.33 1355,361.33" fill="#83d5ed"/><polygon points="0,361.33 90.33,361.33 90.33,451.65999999999997" fill="#ffffff"/><g transform="translate(90.33,361.33) scale(4.5165) rotate(0)"><rect width="20" height="10" fill="#e9eaea"/></g><g transform="translate(180.67,361.33) scale(4.5165) rotate(0)"><rect width="20" height="10" fill="#ffffff"/></g><polygon points="271,361.33 361.33,361.33 361.33,451.65999999999997" fill="#cccdcf"/><g transform="translate(361.33,361.33) scale(4.5165) rotate(0)"><rect width="20" height="10" fill="#d8d9db"/></g><polygon points="451.67,361.33 542,451.65999999999997 451.67,451.65999999999997" fill="#ffffff"/><rect x="542" y="361.33" width="90.33" height="90.33" fill="#c4ebf6"/><rect x="632.33" y="361.33" width="90.33" height="90.33" fill="#adb0b3"/><rect x="722.67" y="361.33" width="90.33" height="90.33" fill="#ffffff"/><rect x="813" y="361.33" width="90.33" height="90.33" fill="#94979b"/><polygon points="903.33,361.33 993.6600000000001,361.33 993.6600000000001,451.65999999999997" fill="#f2fbfd"/><polygon points="1084,361.33 1084,451.65999999999997 993.67,451.65999999999997" fill="#ffffff"/><g transform="translate(1084,361.33) scale(4.5165) rotate(0)"><rect width="20" height="10" fill="#abe2f3"/></g><polygon points="1174.33,361.33 1264.6599999999999,451.65999999999997 1174.33,451.65999999999997" fill="#c3c5c7"/><polygon points="1264.67,361.33 1355,451.65999999999997 1264.67,451.65999999999997" fill="#c8cacc"/><g transform="translate(1355,361.33) scale(4.5165) rotate(0)"><rect width="20" height="10" fill="#a0a4a7"/></g><g transform="translate(0,451.67) scale(4.5165) rotate(0)"><rect width="20" height="10" fill="#68cbe9"/></g><g transform="translate(90.33,451.67) scale(4.5165) rotate(0)"><rect width="20" height="10" fill="#feffff"/></g><g transform="translate(180.67,451.67) scale(4.5165) rotate(0)"><rect width="20" height="10" fill="#ffffff"/></g><g transform="translate(271,451.67) scale(4.5165) rotate(0)"><rect width="20" height="10" fill="#ffffff"/></g><g transform="translate(361.33,451.67) scale(4.5165) rotate(0)"><rect width="20" height="10" fill="#d2f0f9"/></g><g transform="translate(451.67,451.67) scale(4.5165) rotate(0)"><rect width="20" height="10" fill="#b2b5b7"/></g><polygon points="542,451.67 632.33,451.67 542,542" fill="#f6f6f6"/><rect x="632.33" y="451.67" width="90.33" height="90.33" fill="#ffffff"/><rect x="722.67" y="451.67" width="90.33" height="90.33" fill="#3dbde3"/><g transform="translate(813,451.67) scale(4.5165) rotate(0)"><rect width="20" height="10" fill="#bdbfc1"/></g><rect x="903.33" y="451.67" width="90.33" height="90.33" fill="#d7d9da"/><rect x="993.67" y="451.67" width="90.33" height="90.33" fill="#f2f2f3"/><polygon points="1084,451.67 1174.33,542 1084,542" fill="#abadb0"/><rect x="1174.33" y="451.67" width="90.33" height="90.33" fill="#979a9e"/><rect x="1264.67" y="451.67" width="90.33" height="90.33" fill="#d2f0f9"/><rect x="1355" y="451.67" width="90.33" height="90.33" fill="#e5f6fb"/><g transform="translate(0,542) scale(4.5165) rotate(0)"><rect width="20" height="10" fill="#c2c4c6"/></g><polygon points="180.66,542 180.66,632.33 90.33,632.33" fill="#ffffff"/><g transform="translate(180.67,542) scale(4.5165) rotate(0)"><rect width="20" height="10" fill="#ffffff"/></g><polygon points="271,542 361.33,542 361.33,632.33" fill="#3abce3"/><polygon points="361.33,542 451.65999999999997,632.33 361.33,632.33" fill="#45c0e4"/><polygon points="451.67,542 542,542 542,632.33" fill="#d2f0f8"/><g transform="translate(542,542) scale(4.5165) rotate(0)"><rect width="20" height="10" fill="#ffffff"/></g><polygon points="632.33,542 722.6600000000001,632.33 632.33,632.33" fill="#ffffff"/><polygon points="722.67,542 813,632.33 722.67,632.33" fill="#fcfcfd"/><polygon points="813,542 903.33,542 903.33,632.33" fill="#ffffff"/><rect x="903.33" y="542" width="90.33" height="90.33" fill="#ffffff"/><polygon points="993.67,542 1084,542 993.67,632.33" fill="#b1b4b6"/><g transform="translate(1084,542) scale(4.5165) rotate(0)"><rect width="20" height="10" fill="#ffffff"/></g><polygon points="1174.33,542 1264.6599999999999,632.33 1174.33,632.33" fill="#fafafa"/><polygon points="1264.67,542 1355,632.33 1264.67,632.33" fill="#4bc2e5"/><polygon points="1355,542 1445.33,542 1445.33,632.33" fill="#ffffff"/><rect x="0" y="632.33" width="90.33" height="90.33" fill="#ffffff"/><polygon points="90.33,632.33 180.66,722.6600000000001 90.33,722.6600000000001" fill="#f4f5f5"/><rect x="180.67" y="632.33" width="90.33" height="90.33" fill="#ffffff"/><g transform="translate(271,632.33) scale(4.5165) rotate(0)"><rect width="20" height="10" fill="#c7c9ca"/></g><rect x="361.33" y="632.33" width="90.33" height="90.33" fill="#898d91"/><g transform="translate(451.67,632.33) scale(4.5165) rotate(0)"><rect width="20" height="10" fill="#b2b5b8"/></g><polygon points="542,632.33 632.33,722.6600000000001 542,722.6600000000001" fill="#abaeb1"/><g transform="translate(632.33,632.33) scale(4.5165) rotate(0)"><rect width="20" height="10" fill="#eaebeb"/></g><rect x="722.67" y="632.33" width="90.33" height="90.33" fill="#e4e5e6"/><rect x="813" y="632.33" width="90.33" height="90.33" fill="#999da0"/><polygon points="993.6600000000001,632.33 993.6600000000001,722.6600000000001 903.33,722.6600000000001" fill="#ffffff"/><g transform="translate(993.67,632.33) scale(4.5165) rotate(0)"><rect width="20" height="10" fill="#e5f6fb"/></g><rect x="1084" y="632.33" width="90.33" height="90.33" fill="#ffffff"/><rect x="1174.33" y="632.33" width="90.33" height="90.33" fill="#a1dff1"/><polygon points="1355,632.33 1355,722.6600000000001 1264.67,722.6600000000001" fill="#969a9d"/><rect x="1355" y="632.33" width="90.33" height="90.33" fill="#f3f3f4"/><rect x="0" y="722.67" width="90.33" height="90.33" fill="#9bddf1"/><polygon points="90.33,722.67 180.66,722.67 90.33,813" fill="#ffffff"/><polygon points="180.67,722.67 271,722.67 271,813" fill="#51c4e6"/><polygon points="271,722.67 361.33,722.67 271,813" fill="#ffffff"/><g transform="translate(361.33,722.67) scale(4.5165) rotate(0)"><rect width="20" height="10" fill="#2ab7e0"/></g><rect x="451.67" y="722.67" width="90.33" height="90.33" fill="#f5f6f6"/><polygon points="542,722.67 632.33,722.67 542,813" fill="#26b5e0"/><g transform="translate(632.33,722.67) scale(4.5165) rotate(0)"><rect width="20" height="10" fill="#c1c3c5"/></g><rect x="722.67" y="722.67" width="90.33" height="90.33" fill="#b4b6b9"/><polygon points="813,722.67 903.33,722.67 813,813" fill="#f8f8f8"/><polygon points="903.33,722.67 993.6600000000001,813 903.33,813" fill="#8bd7ee"/><polygon points="1084,722.67 1084,813 993.67,813" fill="#989b9f"/><polygon points="1084,722.67 1174.33,722.67 1084,813" fill="#ffffff"/><polygon points="1174.33,722.67 1264.6599999999999,722.67 1264.6599999999999,813" fill="#8ad7ee"/><rect x="1264.67" y="722.67" width="90.33" height="90.33" fill="#ffffff"/><polygon points="1355,722.67 1445.33,813 1355,813" fill="#94989c"/></g></svg>