<?xml version="1.0" encoding="UTF-8"?>
<!DOCTYPE svg PUBLIC "-//W3C//DTD SVG 1.1//EN" "http://www.w3.org/Graphics/SVG/1.1/DTD/svg11.dtd">
<!-- Creator: CorelDRAW X8 -->
<svg xmlns="http://www.w3.org/2000/svg" xml:space="preserve" width="215.9mm" height="279.4mm" version="1.1" style="shape-rendering:geometricPrecision; text-rendering:geometricPrecision; image-rendering:optimizeQuality; fill-rule:evenodd; clip-rule:evenodd"
viewBox="0 0 21590 27940"
 xmlns:xlink="http://www.w3.org/1999/xlink">
 <defs>
  <style type="text/css">
   <![CDATA[
    .fil0 {fill:#FEFEFE}
    .fil6 {fill:#FAFCFA}
    .fil12 {fill:#E0F2F2}
    .fil20 {fill:#C6E1DD}
    .fil18 {fill:#C6D7D9}
    .fil13 {fill:#B9E2DE}
    .fil17 {fill:#B8D7D7}
    .fil14 {fill:#A8C4C9}
    .fil16 {fill:#A2BDC3}
    .fil15 {fill:#9AB7BB}
    .fil21 {fill:#89ABAF}
    .fil19 {fill:#77A6A9}
    .fil22 {fill:#739BA3}
    .fil5 {fill:#67C296}
    .fil11 {fill:#68C293}
    .fil7 {fill:#62C093}
    .fil10 {fill:#63C08E}
    .fil3 {fill:#36B882}
    .fil4 {fill:#12B374}
    .fil9 {fill:#0BAD72}
    .fil8 {fill:#0CAC6C}
    .fil2 {fill:#1D4950}
    .fil1 {fill:#1E474E}
   ]]>
  </style>
 </defs>
 <g id="Layer_x0020_1">
  <metadata id="CorelCorpID_0Corel-Layer"/>
  <g id="_2078556901696">
   <path class="fil0" d="M17271 10088c-58,57 -226,26 -309,26l-989 3c-216,0 -434,0 -650,-2l-570 -3c-10,0 -30,0 -40,2l-35 8c-3,1 -7,3 -11,4 -20,78 -19,984 3,1051 67,27 1994,9 2414,12 24,0 60,-1 82,0l70 20c328,66 425,553 131,738l-46 48c-60,35 -155,36 -223,36 -118,1 -235,2 -353,1 -610,-2 -1531,-26 -2075,-1 -23,164 -13,342 -13,513 0,172 -8,358 0,528 209,16 465,2 680,2 195,1 1758,-7 1858,10 71,12 98,14 133,53 189,144 329,388 127,631 -100,120 -182,138 -357,137l-1951 -3c-142,0 -360,-12 -493,4 -18,105 -19,1014 6,1062 27,29 2127,14 2451,13 140,-1 221,23 304,105 247,245 116,717 -290,721 -334,4 -2350,-17 -2475,4 -4,139 -22,938 9,1001l30 12c3,1 7,2 11,2 16,3 50,2 67,2l908 0c343,0 687,1 1030,0 357,-1 649,-71 795,231 100,206 41,583 -402,582 -3614,-2 -7239,10 -10851,-1 -170,-1 -282,-23 -367,-149 -208,-307 35,-627 229,-640 60,-64 559,-36 680,-36 292,-1 2099,14 2130,-12 33,-50 29,-943 3,-974 -27,-19 -1809,-6 -2093,-8l-704 -25c-141,-20 -276,-171 -310,-303 -25,-97 -13,-202 22,-281 42,-95 61,-105 138,-166 52,-89 205,-82 299,-84 872,-13 1785,16 2657,4l-4 -1032c-157,-54 -2225,12 -2762,-10 -63,-3 -116,-6 -149,-52 -276,-162 -287,-556 -16,-724 17,-21 3,-9 26,-26 33,-24 66,-26 105,-33 65,-11 100,-12 170,-13 126,-1 253,-3 379,-3 346,-1 2171,17 2243,-8 27,-74 20,-903 3,-1027 -564,-31 -1530,-6 -2165,-6l-542 0c-74,-1 -124,8 -163,-38 -147,-26 -252,-212 -253,-371 -2,-197 92,-354 243,-393 16,-15 0,-8 29,-22 58,-29 590,-17 659,-18 266,-2 2107,16 2195,-8l9 -1057c-118,-26 -539,-9 -686,-9l-1761 -2c-164,1 -302,19 -366,-23 -203,7 -383,-294 -310,-515 88,-266 276,-286 581,-287l10458 0c107,0 329,-18 420,19 210,84 329,343 226,577 -30,69 -136,191 -229,203zm-12683 -1523c-27,48 -95,137 -133,194 -45,68 -83,163 -96,250 -20,127 -32,181 -33,323 -10,1512 -1,3053 -1,4567l-1 3509c0,312 -2,365 98,606 99,237 288,447 507,551 166,79 219,58 257,98 121,-15 5857,-2 5965,-2 1986,0 3973,0 5960,0 248,0 497,0 745,0 248,0 442,-32 605,-146 631,-443 544,-948 546,-1689l-3 -7453c1,-135 -14,-226 -43,-331 -20,-73 -95,-231 -97,-274 -4,-2 -8,-10 -9,-8l-113 -151c-101,-122 -336,-314 -498,-338 -52,6 -324,-24 -428,-25 -149,-1 -298,-1 -447,-1l-11447 3c-254,0 -612,-35 -838,40 -142,48 -326,137 -426,241 -78,80 -48,80 -115,112 1,-4 4,-9 5,-12l21 -38c12,-19 3,-9 19,-26z"/>
   <path class="fil1" d="M18639 4279c107,13 471,194 526,265 57,21 116,74 145,111 37,18 5,-8 46,33l398 525 30 91c38,33 67,125 82,173 70,214 92,386 94,616 2,312 1,624 1,935 0,628 0,1256 -1,1884 -4,2819 15,5655 -2,8469 -2,325 -20,542 -126,812 -156,394 -474,812 -850,1021 -205,115 -446,227 -706,243 -293,19 -636,5 -935,4l-11270 1c-311,1 -625,6 -935,0 -209,-3 -625,-96 -728,-217 -138,-31 -421,-290 -521,-397 -298,-321 -319,-489 -489,-783 -46,-80 -72,-395 -73,-494 -5,-306 -2,-615 -2,-921 3,-1225 1,-2449 1,-3673 0,-312 -35,-6797 8,-7111 9,-66 9,-139 47,-180 15,-238 269,-651 425,-830 150,-171 521,-500 738,-517 37,-34 120,-53 168,-62 324,-66 1191,-44 1527,-39 35,22 10,-17 27,40l-7 664c3,443 -38,829 207,1205 143,221 301,336 328,372 64,25 124,86 193,121 242,125 506,158 793,144 356,-16 644,-227 831,-414 168,-169 271,-373 330,-602 21,-83 20,-200 21,-298 0,-158 -10,-1152 7,-1219l22 -4c14,-5 5530,-26 5612,-3 54,67 20,40 22,47 2,10 2,42 2,54 0,36 -2,73 -2,109 -1,63 3,128 -6,190 -2,424 -53,920 77,1282 45,125 178,317 261,414 137,161 308,239 360,290 76,29 119,65 193,86 215,63 500,112 725,64 247,-53 528,-178 702,-361 510,-534 334,-928 375,-1778 -22,-74 -29,-343 5,-404 71,-29 561,-11 677,-11 122,0 554,-21 647,53zm-14749 15728c104,27 240,119 365,166 493,188 807,179 1369,180l12422 -2c1149,-3 2058,-628 2527,-1607 324,-676 289,-1040 291,-1783l2 -10353c0,-335 15,-687 -30,-1003 -21,-152 -116,-453 -182,-590 -28,-58 -73,-134 -86,-195 -173,-276 -259,-432 -492,-676 -381,-398 -985,-764 -1583,-778 -259,-7 -1028,13 -1192,-6 -62,-189 -34,-207 -167,-421 -595,-960 -2002,-878 -2441,182 -29,69 -48,169 -75,236l-5653 1c-117,-272 -143,-495 -456,-748 -247,-198 -485,-330 -881,-333 -397,-3 -675,113 -903,310 -396,343 -434,736 -458,761 -46,46 -242,17 -318,17l-1030 -1c-433,4 -747,125 -1075,301 -559,301 -1040,895 -1257,1491 -159,438 -167,690 -168,1208l2 10990c1,504 35,777 214,1173 510,1130 1159,1366 1255,1480z"/>
   <path class="fil2" d="M9794 15806l1575 -3c6,140 17,948 -8,1014l-1281 14c-186,0 -274,30 -289,-44l3 -981zm3996 993c7,42 -10,29 -63,33 -26,2 -70,-1 -97,-1 -68,0 -136,1 -204,1 -130,0 -261,0 -392,0 -131,0 -262,-1 -393,-1l-387 -11c-44,-13 -24,-949 -11,-1017 125,-18 1178,1 1441,-2 160,-2 125,-32 125,361 0,52 17,595 -19,637zm-1541 -2885l-4 11c24,-32 -39,-22 44,-28 189,-7 1420,-16 1523,9 17,73 12,1034 -6,1074 -97,42 -640,13 -786,12 -179,0 -636,21 -783,-11 -10,-44 -23,-858 -7,-1002l19 -65zm-882 12l-1 1030c-4,14 16,34 -79,37 -255,7 -1442,3 -1499,-17 -20,-125 -6,-394 -7,-535 -1,-177 -6,-358 10,-534 70,-25 982,-11 1183,-10l353 1c45,13 16,-11 40,28zm2428 -852c-19,52 -307,23 -369,23 -131,0 -261,0 -392,0 -206,0 -610,23 -791,-6 -21,-76 -21,-985 -2,-1070 101,-26 1510,-16 1565,8 16,16 19,977 14,1003 -10,54 18,28 -25,42zm-3987 -1047c13,-12 -5,-6 30,-15 18,-5 33,-5 52,-6 256,-6 1425,-4 1485,14 13,104 10,1029 -10,1061 -35,43 -732,19 -783,19 -121,0 -729,20 -786,-14 -31,-34 -11,-780 -12,-936 0,-49 -12,-106 24,-123zm2437 -1921l1 12c32,-42 95,-27 192,-28 67,0 135,0 203,0 285,1 983,-16 1179,7l-5 1100c-73,26 -1473,26 -1577,3 -5,-23 -40,-1008 7,-1094zm-2453 1085c-25,-67 -11,-825 -10,-1006 0,-81 -4,-93 80,-96 52,-1 111,1 164,1 310,1 1083,-11 1338,6 19,60 17,1010 3,1104 -140,25 -1520,21 -1575,-9zm-3667 -1100c278,-8 2752,-14 2818,11 39,31 10,1084 8,1096 -113,36 -1241,10 -1458,11 -452,1 -1018,-30 -1447,21 -151,39 -245,196 -243,393 1,159 106,345 253,371 477,43 2707,-11 2894,26 15,92 18,1005 -1,1072 -81,21 -1967,4 -2228,5 -253,1 -493,-15 -721,51 -271,168 -260,562 16,724 431,77 2644,-13 2932,35l9 1076c-124,19 -2287,2 -2656,3 -171,0 -183,7 -326,60 -77,61 -96,71 -138,166 -35,79 -47,184 -22,281 34,132 169,283 310,303l2824 3c20,73 18,953 -1,1032 -108,17 -1208,6 -1414,6 -235,0 -470,0 -705,0 -204,0 -530,-18 -720,14 -194,13 -437,333 -229,640 85,126 197,148 367,149 3612,11 7237,-1 10851,1 443,1 502,-376 402,-582 -146,-302 -438,-232 -795,-231 -343,1 -687,0 -1030,0l-908 0c-17,0 -51,1 -67,-2 -4,0 -8,-1 -11,-2l-30 -12c-31,-63 -13,-862 -9,-1001 125,-21 2141,0 2475,-4 406,-4 537,-476 290,-721 -83,-82 -164,-106 -304,-105 -324,1 -2424,16 -2451,-13 -25,-48 -24,-957 -6,-1062 133,-16 351,-4 493,-4l1951 3c175,1 257,-17 357,-137 202,-243 62,-487 -127,-631 -292,-48 -347,-35 -650,-37 -226,-1 -452,-2 -678,-3 -174,0 -1279,21 -1341,-8 -3,-3 -6,-12 -7,-10 -1,2 -5,-8 -6,-11 -13,-34 -3,16 -11,-36l2 -475c0,-140 -27,-425 15,-537 77,-34 1743,-11 2066,-10 118,0 235,-1 353,-2 187,-1 151,-8 296,-61 294,-185 197,-672 -131,-738 -245,9 -2532,7 -2596,-17l2 -1091c67,-24 2308,-1 2629,-13 93,-12 199,-134 229,-203 103,-234 -16,-493 -226,-577 -91,-37 -313,-19 -420,-19l-10458 0c-305,1 -493,21 -581,287 -73,221 107,522 310,515z"/>
   <path class="fil3" d="M6242 4643c-24,206 16,424 -4,618l-1075 -3c-223,0 -119,-11 -317,31 -225,47 -326,111 -457,247 -113,117 -228,267 -273,430 -74,273 -40,1637 -37,2092 1,142 5,187 -109,245 -109,55 -220,45 -270,80l-2 2047c1,40 5,107 -34,131l5 -8c-24,37 -8,18 -86,39 14,524 8,1101 -2,1626 -10,546 -1,1094 -3,1640l1 2453c0,133 23,747 -11,814 -29,57 -156,113 -220,99l0 -5819c0,-220 23,-652 -17,-846 24,-375 -1,-839 -1,-1227 0,-411 2,-822 2,-1233l2 -1843c1,-357 13,-266 45,-570 -38,41 -38,114 -47,180 -43,314 -8,6799 -8,7111 0,1224 2,2448 -1,3673 0,306 -3,615 2,921 1,99 27,414 73,494 170,294 191,462 489,783 100,107 383,366 521,397 91,24 166,92 361,144 311,84 1158,67 1466,49 -11,-27 -1,-11 -24,-29 -7,-6 -99,-50 -195,-119 -27,-20 -50,-35 -82,-51 -143,-71 -825,-547 -928,-578 54,-30 99,17 180,2 -38,-40 -91,-19 -257,-98 -219,-104 -408,-314 -507,-551 -100,-241 -98,-294 -98,-606l1 -3509c0,-1514 -9,-3055 1,-4567 1,-142 13,-196 33,-323 13,-87 51,-182 96,-250 38,-57 106,-146 133,-194 96,-141 372,-292 560,-331 239,-50 587,-25 855,-25l11433 0c184,0 458,-6 637,12 110,12 141,9 171,50 162,24 397,216 498,338l113 151c1,-2 5,6 9,8l4 -43c47,61 186,121 257,178l202 124c30,24 14,21 59,50 71,45 169,85 272,160 55,40 213,160 276,174 23,-341 1,-721 5,-1068l-2 -2114c1,-367 -19,-598 -153,-925l-30 -91 -1831 42c-11,-98 -4,-214 -3,-313 0,-63 27,-260 -30,-285 -9,501 18,1002 9,1504 -5,315 -147,595 -335,805 -89,100 -193,179 -315,240 -42,21 -84,54 -121,70 -434,179 -911,122 -1265,-152 -28,-22 -31,-17 -61,-33 -106,-54 -312,-263 -405,-353 -37,-36 -56,-56 -82,-108 -52,-51 -223,-129 -360,-290 -83,-97 -216,-289 -261,-414 -130,-362 -79,-858 -77,-1282l-26 68c-5,24 -5,56 -6,80 -12,519 64,474 -156,472l-4254 0c-185,-2 -437,16 -613,-4 -17,-57 -14,-375 -11,-468 6,-149 10,-120 -23,-134 -10,342 34,1351 -2,1576 -31,190 -60,287 -142,451 -35,71 -202,279 -252,330 -60,61 -134,132 -219,173 -205,101 -347,175 -607,181 -260,5 -454,-46 -648,-142 -100,-50 -155,-77 -245,-147 -247,-191 -199,-183 -311,-284 -39,-34 -59,-42 -99,-89 -103,-119 -183,-132 -211,-188 -27,-36 -185,-151 -328,-372 -245,-376 -204,-762 -207,-1205l7 -664c-17,-57 8,-18 -27,-40 27,73 12,335 5,405z"/>
   <path class="fil4" d="M18864 8768c2,43 77,201 97,274 29,105 44,196 43,331l3 7453c-2,741 85,1246 -546,1689 -163,114 -357,146 -605,146 -248,0 -497,0 -745,0 -1987,0 -3974,0 -5960,0 -108,0 -5844,-13 -5965,2 -81,15 -126,-32 -180,-2 103,31 785,507 928,578 32,16 55,31 82,51 96,69 188,113 195,119 23,18 13,2 24,29 -308,18 -1155,35 -1466,-49 -195,-52 -270,-120 -361,-144 103,121 519,214 728,217 310,6 624,1 935,0l11270 -1c299,1 642,15 935,-4 260,-16 501,-128 706,-243 376,-209 694,-627 850,-1021 106,-270 124,-487 126,-812 17,-2814 -2,-5650 2,-8469 1,-628 1,-1256 1,-1884 0,-311 1,-623 -1,-935 -2,-230 -24,-402 -94,-616 -15,-48 -44,-140 -82,-173 134,327 154,558 153,925l2 2114c-4,347 18,727 -5,1068 -63,-14 -221,-134 -276,-174 -103,-75 -201,-115 -272,-160 -45,-29 -29,-26 -59,-50l-202 -124c-71,-57 -210,-117 -257,-178l-4 43z"/>
   <path class="fil5" d="M9528 4658c33,14 29,-15 23,134 -3,93 -6,411 11,468 176,20 428,2 613,4l4254 0c220,2 144,47 156,-472 1,-24 1,-56 6,-80l26 -68c9,-62 5,-127 6,-190 0,-36 2,-73 2,-109 0,-12 0,-44 -2,-54 -2,-7 32,20 -22,-47 7,92 25,316 -10,385 -32,35 -2551,14 -2804,14 -125,0 -2653,4 -2802,-17l4 -379 -22 4c-11,68 -6,134 -7,203 -1,69 -18,147 29,185 73,59 419,-16 539,19z"/>
   <path class="fil6" d="M4542 4339c-217,17 -588,346 -738,517 -156,179 -410,592 -425,830 -32,304 -44,213 -45,570l-2 1843c0,411 -2,822 -2,1233 0,388 25,852 1,1227l338 -6 -5 8c2,-207 -4,-4387 11,-4491 9,-58 24,-116 35,-164 16,-65 12,-120 33,-190 109,-344 419,-763 719,-913 15,-47 18,-38 70,-62l268 -97c313,-79 1218,14 1420,-40 0,-76 25,-275 -3,-324 -37,-39 -1120,-24 -1299,-6 -144,15 -343,70 -376,65z"/>
   <path class="fil7" d="M4462 4803c-300,150 -610,569 -719,913 -21,70 -17,125 -33,190 -11,48 -26,106 -35,164 -15,104 -9,4284 -11,4491 39,-24 35,-91 34,-131l2 -2047c50,-35 161,-25 270,-80 114,-58 110,-103 109,-245 -3,-455 -37,-1819 37,-2092 45,-163 160,-313 273,-430 131,-136 232,-200 457,-247 198,-42 94,-31 317,-31l1075 3c20,-194 -20,-412 4,-618 -367,29 -1182,-37 -1427,29 -210,57 -276,110 -353,131z"/>
   <path class="fil8" d="M15315 6630c26,52 45,72 82,108 93,90 299,299 405,353 30,16 33,11 61,33 354,274 831,331 1265,152 37,-16 79,-49 121,-70 122,-61 226,-140 315,-240 188,-210 330,-490 335,-805 9,-502 -18,-1003 -9,-1504l5 -13c-88,17 -484,9 -585,-3 -41,850 135,1244 -375,1778 -174,183 -455,308 -702,361 -225,48 -510,-1 -725,-64 -74,-21 -117,-57 -193,-86z"/>
   <path class="fil9" d="M6792 6519c28,56 108,69 211,188 40,47 60,55 99,89 112,101 64,93 311,284 90,70 145,97 245,147 194,96 388,147 648,142 260,-6 402,-80 607,-181 85,-41 159,-112 219,-173 50,-51 217,-259 252,-330 82,-164 111,-261 142,-451 36,-225 -8,-1234 2,-1576 -120,-35 -466,40 -539,-19 -47,-38 -30,-116 -29,-185 1,-69 -4,-135 7,-203 -17,67 -7,1061 -7,1219 -1,98 0,215 -21,298 -59,229 -162,433 -330,602 -187,187 -475,398 -831,414 -287,14 -551,-19 -793,-144 -69,-35 -129,-96 -193,-121z"/>
   <path class="fil0" d="M14573 4278c-138,-21 -488,-5 -645,-3 -215,3 -436,1 -651,-1 -1067,-15 -2173,10 -3251,-1 -563,-6 -476,-16 -478,167 -1,185 -17,164 167,166l2275 1c434,0 868,6 1301,2 217,-2 1163,12 1286,-4l-4 -327z"/>
   <polygon class="fil0" points="9808,11186 11351,11190 11354,10120 9811,10113 "/>
   <path class="fil0" d="M11366 14956l1 -1030c-103,-16 -1513,-15 -1558,0l0 1030c48,24 1474,27 1557,0z"/>
   <path class="fil0" d="M9808 12027l-1 1045 1547 4c7,-191 26,-894 -5,-1041l-1541 -8z"/>
   <path class="fil0" d="M12256 10129c-9,209 1,441 3,653 4,368 -33,394 96,394l1429 3 1 -1054 -1529 4z"/>
   <path class="fil0" d="M13795 13074c-8,-180 21,-924 -15,-1022 -70,-24 -1378,-30 -1520,-13l-2 1027 1537 8z"/>
   <path class="fil10" d="M3669 10553l-338 6c40,194 17,626 17,846l0 5819c64,14 191,-42 220,-99 34,-67 11,-681 11,-814l-1 -2453c2,-546 -7,-1094 3,-1640 10,-525 16,-1102 2,-1626 78,-21 62,-2 86,-39z"/>
   <path class="fil0" d="M12284 13948c-30,100 -16,492 -16,628 -1,380 -26,369 101,367 458,-8 931,14 1400,4 28,-85 26,-940 1,-1000 -124,-18 -1401,-21 -1486,1z"/>
   <polygon class="fil0" points="9820,16803 11347,16801 11342,15827 9819,15825 "/>
   <path class="fil0" d="M13790 16799c-45,-164 9,-741 -11,-967l-1515 -12 -8 979 1534 0z"/>
   <path class="fil11" d="M19754 5213l-398 -525c-41,-41 -9,-15 -46,-33l-4 29c-65,-22 -55,-39 -149,-42l-1262 2 -5 13c57,25 30,222 30,285 -1,99 -8,215 3,313l1831 -42z"/>
   <path class="fil12" d="M14573 4278l4 327c-123,16 -1069,2 -1286,4 -433,4 -867,-2 -1301,-2l-2275 -1c-184,-2 -168,19 -167,-166 2,-183 -85,-173 478,-167 1078,11 2184,-14 3251,1 215,2 436,4 651,1 157,-2 507,-18 645,3zm28 -34c-82,-23 -5598,-2 -5612,3l-4 379c149,21 2677,17 2802,17 253,0 2772,21 2804,-14 35,-69 17,-293 10,-385z"/>
   <path class="fil13" d="M4588 8565c-16,17 -7,7 -19,26l-21 38c-1,3 -4,8 -5,12 67,-32 37,-32 115,-112 100,-104 284,-193 426,-241 226,-75 584,-40 838,-40l11447 -3c149,0 298,0 447,1 104,1 376,31 428,25 -30,-41 -61,-38 -171,-50 -179,-18 -453,-12 -637,-12l-11433 0c-268,0 -616,-25 -855,25 -188,39 -464,190 -560,331z"/>
   <path class="fil0" d="M19165 4544c-55,-71 -419,-252 -526,-265l-64 4c-39,9 -296,-2 -367,0 -210,4 -291,-41 -308,51 -13,71 -21,224 32,260 77,34 1164,34 1238,1l-5 -51z"/>
   <path class="fil12" d="M17895 4644l1262 -2c94,3 84,20 149,42l4 -29c-29,-37 -88,-90 -145,-111l5 51c-74,33 -1161,33 -1238,-1 -53,-36 -45,-189 -32,-260 17,-92 98,-47 308,-51 71,-2 328,9 367,0 -61,-45 -219,-33 -299,-34 -104,0 -208,-1 -311,-1 -215,-1 -428,1 -642,1 -3,65 -5,126 -5,191 0,234 -24,185 308,188 50,1 99,2 149,1l120 15z"/>
   <path class="fil14" d="M5975 15046c143,-53 155,-60 326,-60 369,-1 2532,16 2656,-3l-9 -1076c-288,-48 -2501,42 -2932,-35 33,46 86,49 149,52 537,22 2605,-44 2762,10l4 1032c-872,12 -1785,-17 -2657,-4 -94,2 -247,-5 -299,84z"/>
   <path class="fil15" d="M6046 11230c429,-51 995,-20 1447,-21 217,-1 1345,25 1458,-11 2,-12 31,-1065 -8,-1096 -66,-25 -2540,-19 -2818,-11 64,42 202,24 366,23l1761 2c147,0 568,-17 686,9l-9 1057c-88,24 -1929,6 -2195,8 -69,1 -601,-11 -659,18 -29,14 -13,7 -29,22z"/>
   <path class="fil16" d="M6000 13148c228,-66 468,-50 721,-51 261,-1 2147,16 2228,-5 19,-67 16,-980 1,-1072 -187,-37 -2417,17 -2894,-26 39,46 89,37 163,38l542 0c635,0 1601,-25 2165,6 17,124 24,953 -3,1027 -72,25 -1897,7 -2243,8 -126,0 -253,2 -379,3 -70,1 -105,2 -170,13 -39,7 -72,9 -105,33 -23,17 -9,5 -26,26z"/>
   <path class="fil17" d="M13790 16799l-1534 0 8 -979 1515 12c20,226 -34,803 11,967zm0 0c36,-42 19,-585 19,-637 0,-393 35,-363 -125,-361 -263,3 -1316,-16 -1441,2 -13,68 -33,1004 11,1017l387 11c131,0 262,1 393,1 131,0 262,0 392,0 68,0 136,-1 204,-1 27,0 71,3 97,1 53,-4 70,9 63,-33z"/>
   <path class="fil15" d="M17328 13137c-35,-39 -62,-41 -133,-53 -100,-17 -1663,-9 -1858,-10 -215,0 -471,14 -680,-2 -8,-170 0,-356 0,-528 0,-171 -10,-349 13,-513 544,-25 1465,-1 2075,1 118,1 235,0 353,-1 68,0 163,-1 223,-36l46 -48c-145,53 -109,60 -296,61 -118,1 -235,2 -353,2 -323,-1 -1989,-24 -2066,10 -42,112 -15,397 -15,537l-2 475c8,52 -2,2 11,36 1,3 5,13 6,11 1,-2 4,7 7,10 62,29 1167,8 1341,8 226,1 452,2 678,3 303,2 358,-11 650,37z"/>
   <path class="fil15" d="M6109 16851c190,-32 516,-14 720,-14 235,0 470,0 705,0 206,0 1306,11 1414,-6 19,-79 21,-959 1,-1032l-2824 -3 704 25c284,2 2066,-11 2093,8 26,31 30,924 -3,974 -31,26 -1838,11 -2130,12 -121,0 -620,-28 -680,36z"/>
   <path class="fil14" d="M13795 13074l-1537 -8 2 -1027c142,-17 1450,-11 1520,13 36,98 7,842 15,1022zm0 0c43,-14 15,12 25,-42 5,-26 2,-987 -14,-1003 -55,-24 -1464,-34 -1565,-8 -19,85 -19,994 2,1070 181,29 585,6 791,6 131,0 261,0 392,0 62,0 350,29 369,-23z"/>
   <path class="fil14" d="M9811 10113l1543 7 -3 1070 -1543 -4 3 -1073zm-19 1078c55,30 1435,34 1575,9 14,-94 16,-1044 -3,-1104 -255,-17 -1028,-5 -1338,-6 -53,0 -112,-2 -164,-1 -84,3 -80,15 -80,96 -1,181 -15,939 10,1006z"/>
   <path class="fil14" d="M17236 11209l-70 -20c-22,-1 -58,0 -82,0 -420,-3 -2347,15 -2414,-12 -22,-67 -23,-973 -3,-1051 4,-1 8,-3 11,-4l35 -8c10,-2 30,-2 40,-2l570 3c216,2 434,2 650,2l989 -3c83,0 251,31 309,-26 -321,12 -2562,-11 -2629,13l-2 1091c64,24 2351,26 2596,17z"/>
   <path class="fil15" d="M9808 12027l1541 8c31,147 12,850 5,1041l-1547 -4 1 -1045zm0 0c-36,17 -24,74 -24,123 1,156 -19,902 12,936 57,34 665,14 786,14 51,0 748,24 783,-19 20,-32 23,-957 10,-1061 -60,-18 -1229,-20 -1485,-14 -19,1 -34,1 -52,6 -35,9 -17,3 -30,15z"/>
   <path class="fil18" d="M9819 15825l1523 2 5 974 -1527 2 -1 -978zm-28 962c15,74 103,44 289,44l1281 -14c25,-66 14,-874 8,-1014l-1575 3 -3 981z"/>
   <path class="fil19" d="M12249 13914l-19 65c-16,144 -3,958 7,1002 147,32 604,11 783,11 146,1 689,30 786,-12 18,-40 23,-1001 6,-1074 -103,-25 -1334,-16 -1523,-9 -83,6 -20,-4 -44,28 133,-20 1455,-23 1547,1l0 1039c-68,20 -1450,16 -1535,-2 -2,-4 -4,-13 -5,-11l-3 -1038z"/>
   <path class="fil20" d="M4542 4339c33,5 232,-50 376,-65 179,-18 1262,-33 1299,6 28,49 3,248 3,324 -202,54 -1107,-39 -1420,40l-268 97c-52,24 -55,15 -70,62 77,-21 143,-74 353,-131 245,-66 1060,0 1427,-29 7,-70 22,-332 -5,-405 -336,-5 -1203,-27 -1527,39 -48,9 -131,28 -168,62z"/>
   <path class="fil12" d="M12284 13948c85,-22 1362,-19 1486,-1 25,60 27,915 -1,1000 -469,10 -942,-12 -1400,-4 -127,2 -102,13 -101,-367 0,-136 -14,-528 16,-628zm-39 -23l4 -11 3 1038c1,-2 3,7 5,11 85,18 1467,22 1535,2l0 -1039c-92,-24 -1414,-21 -1547,-1z"/>
   <path class="fil21" d="M11366 14956c-83,27 -1509,24 -1557,0l0 -1030c45,-15 1455,-16 1558,0 -24,-39 5,-15 -40,-28l-353 -1c-201,-1 -1113,-15 -1183,10 -16,176 -11,357 -10,534 1,141 -13,410 7,535 57,20 1244,24 1499,17 95,-3 75,-23 79,-37z"/>
   <path class="fil12" d="M12256 10129l1529 -4 -1 1054 -1429 -3c-129,0 -92,-26 -96,-394 -2,-212 -12,-444 -3,-653zm-10 -11l-1 -12c-17,147 -18,948 6,1081 101,20 1475,20 1541,0 1,-126 15,-1034 0,-1069 -122,-19 -1402,-15 -1546,0z"/>
   <path class="fil21" d="M12245 10106c-47,86 -12,1071 -7,1094 104,23 1504,23 1577,-3l5 -1100c-196,-23 -894,-6 -1179,-7 -68,0 -136,0 -203,0 -97,1 -160,-14 -192,28 144,-15 1424,-19 1546,0 15,35 1,943 0,1069 -66,20 -1440,20 -1541,0 -24,-133 -23,-934 -6,-1081z"/>
   <path class="fil22" d="M17310 4641c101,12 497,20 585,3l-120 -15c-50,1 -99,0 -149,-1 -332,-3 -308,46 -308,-188 0,-65 2,-126 5,-191 214,0 427,-2 642,-1 103,0 207,1 311,1 80,1 238,-11 299,34l64 -4c-93,-74 -525,-53 -647,-53 -116,0 -606,-18 -677,11 -34,61 -27,330 -5,404z"/>
  </g>
 </g>
</svg>
