<svg width="507" height="92" viewBox="0 0 507 92" fill="none" xmlns="http://www.w3.org/2000/svg">
<path d="M263.805 91.8557C262.374 91.8557 261.006 91.641 259.7 91.2118C258.394 90.7646 257.366 90.1923 256.615 89.4947L257.607 87.402C258.323 88.028 259.235 88.5467 260.344 88.9581C261.453 89.3695 262.607 89.5752 263.805 89.5752C264.896 89.5752 265.781 89.45 266.461 89.1996C267.141 88.9492 267.642 88.6093 267.963 88.1801C268.285 87.7329 268.446 87.2321 268.446 86.6776C268.446 86.0337 268.232 85.515 267.803 85.1215C267.391 84.7281 266.846 84.415 266.166 84.1825C265.504 83.9321 264.771 83.7175 263.966 83.5386C263.161 83.3598 262.347 83.1541 261.524 82.9216C260.72 82.6712 259.977 82.3581 259.298 81.9825C258.636 81.6069 258.099 81.1061 257.688 80.4801C257.277 79.8362 257.071 79.0134 257.071 78.0118C257.071 77.046 257.321 76.1606 257.822 75.3557C258.341 74.533 259.128 73.8801 260.183 73.3972C261.256 72.8964 262.616 72.646 264.261 72.646C265.352 72.646 266.434 72.7891 267.507 73.0753C268.581 73.3614 269.511 73.7728 270.298 74.3094L269.412 76.4557C268.607 75.9192 267.758 75.5346 266.863 75.3021C265.969 75.0517 265.102 74.9265 264.261 74.9265C263.206 74.9265 262.338 75.0606 261.659 75.3289C260.979 75.5972 260.478 75.9549 260.156 76.4021C259.852 76.8492 259.7 77.35 259.7 77.9045C259.7 78.5663 259.906 79.0939 260.317 79.4874C260.746 79.8809 261.292 80.1939 261.954 80.4264C262.633 80.659 263.376 80.8736 264.181 81.0703C264.985 81.2492 265.79 81.4549 266.595 81.6874C267.418 81.9199 268.16 82.224 268.822 82.5996C269.502 82.9752 270.047 83.476 270.459 84.102C270.87 84.7281 271.076 85.5329 271.076 86.5167C271.076 87.4646 270.816 88.35 270.298 89.1727C269.779 89.9776 268.974 90.6305 267.883 91.1313C266.81 91.6142 265.45 91.8557 263.805 91.8557Z" fill="#FAFAFA"/>
<path d="M227.825 91.8557C226.394 91.8557 225.026 91.641 223.72 91.2118C222.415 90.7646 221.386 90.1923 220.635 89.4947L221.628 87.402C222.343 88.028 223.255 88.5467 224.364 88.9581C225.473 89.3695 226.627 89.5752 227.825 89.5752C228.916 89.5752 229.802 89.45 230.481 89.1996C231.161 88.9492 231.662 88.6093 231.984 88.1801C232.306 87.7329 232.467 87.2321 232.467 86.6776C232.467 86.0337 232.252 85.515 231.823 85.1215C231.412 84.7281 230.866 84.415 230.186 84.1825C229.525 83.9321 228.791 83.7175 227.986 83.5386C227.181 83.3598 226.368 83.1541 225.545 82.9216C224.74 82.6712 223.998 82.3581 223.318 81.9825C222.656 81.6069 222.12 81.1061 221.708 80.4801C221.297 79.8362 221.091 79.0134 221.091 78.0118C221.091 77.046 221.342 76.1606 221.842 75.3557C222.361 74.533 223.148 73.8801 224.203 73.3972C225.277 72.8964 226.636 72.646 228.281 72.646C229.373 72.646 230.455 72.7891 231.528 73.0753C232.601 73.3614 233.531 73.7728 234.318 74.3094L233.433 76.4557C232.628 75.9192 231.778 75.5346 230.884 75.3021C229.99 75.0517 229.122 74.9265 228.281 74.9265C227.226 74.9265 226.359 75.0606 225.679 75.3289C224.999 75.5972 224.499 75.9549 224.177 76.4021C223.873 76.8492 223.72 77.35 223.72 77.9045C223.72 78.5663 223.926 79.0939 224.338 79.4874C224.767 79.8809 225.312 80.1939 225.974 80.4264C226.654 80.659 227.396 80.8736 228.201 81.0703C229.006 81.2492 229.811 81.4549 230.616 81.6874C231.438 81.9199 232.181 82.224 232.842 82.5996C233.522 82.9752 234.068 83.476 234.479 84.102C234.89 84.7281 235.096 85.5329 235.096 86.5167C235.096 87.4646 234.837 88.35 234.318 89.1727C233.799 89.9776 232.994 90.6305 231.903 91.1313C230.83 91.6142 229.471 91.8557 227.825 91.8557Z" fill="#FAFAFA"/>
<path d="M187.503 80.963H197.162V83.2435H187.503V80.963ZM187.744 89.3069H198.691V91.641H185.062V72.8606H198.315V75.1947H187.744V89.3069Z" fill="#FAFAFA"/>
<path d="M143.971 91.641V72.8606H146.171L158.593 88.2874H157.439V72.8606H160.122V91.641H157.922L145.5 76.2142H146.654V91.641H143.971Z" fill="#FAFAFA"/>
<path d="M116.349 91.641V72.8606H119.032V91.641H116.349Z" fill="#FAFAFA"/>
<path d="M85.8413 91.8557C84.4104 91.8557 83.0422 91.641 81.7365 91.2118C80.4308 90.7646 79.4023 90.1923 78.6511 89.4947L79.6438 87.402C80.3592 88.028 81.2714 88.5467 82.3804 88.9581C83.4893 89.3695 84.643 89.5752 85.8413 89.5752C86.9324 89.5752 87.8177 89.45 88.4974 89.1996C89.1771 88.9492 89.6779 88.6093 89.9999 88.1801C90.3218 87.7329 90.4828 87.2321 90.4828 86.6776C90.4828 86.0337 90.2681 85.515 89.8389 85.1215C89.4275 84.7281 88.882 84.415 88.2023 84.1825C87.5405 83.9321 86.8072 83.7175 86.0023 83.5386C85.1974 83.3598 84.3836 83.1541 83.5609 82.9216C82.756 82.6712 82.0137 82.3581 81.334 81.9825C80.6723 81.6069 80.1357 81.1061 79.7243 80.4801C79.3129 79.8362 79.1072 79.0134 79.1072 78.0118C79.1072 77.046 79.3576 76.1606 79.8584 75.3557C80.3771 74.533 81.1641 73.8801 82.2194 73.3972C83.2926 72.8964 84.6519 72.646 86.2974 72.646C87.3885 72.646 88.4706 72.7891 89.5437 73.0753C90.6169 73.3614 91.547 73.7728 92.334 74.3094L91.4486 76.4557C90.6437 75.9192 89.7942 75.5346 88.8999 75.3021C88.0056 75.0517 87.1381 74.9265 86.2974 74.9265C85.2421 74.9265 84.3747 75.0606 83.695 75.3289C83.0153 75.5972 82.5145 75.9549 82.1926 76.4021C81.8885 76.8492 81.7365 77.35 81.7365 77.9045C81.7365 78.5663 81.9422 79.0939 82.3535 79.4874C82.7828 79.8809 83.3283 80.1939 83.9901 80.4264C84.6698 80.659 85.4121 80.8736 86.2169 81.0703C87.0218 81.2492 87.8267 81.4549 88.6316 81.6874C89.4543 81.9199 90.1966 82.224 90.8584 82.5996C91.5381 82.9752 92.0836 83.476 92.495 84.102C92.9063 84.7281 93.112 85.5329 93.112 86.5167C93.112 87.4646 92.8527 88.35 92.334 89.1727C91.8153 89.9776 91.0104 90.6305 89.9194 91.1313C88.8462 91.6142 87.4869 91.8557 85.8413 91.8557Z" fill="#FAFAFA"/>
<path d="M47.6109 91.8556C45.1426 91.8556 43.202 91.1491 41.789 89.7361C40.376 88.3231 39.6695 86.2573 39.6695 83.5386V72.8606H42.3524V83.4313C42.3524 85.524 42.8085 87.0532 43.7207 88.0191C44.6508 88.9849 45.9565 89.4678 47.6378 89.4678C49.3369 89.4678 50.6426 88.9849 51.5548 88.0191C52.4849 87.0532 52.9499 85.524 52.9499 83.4313V72.8606H55.5523V83.5386C55.5523 86.2573 54.8458 88.3231 53.4328 89.7361C52.0377 91.1491 50.0971 91.8556 47.6109 91.8556Z" fill="#FAFAFA"/>
<path d="M0.20752 91.641V72.8606H8.63187C10.7961 72.8606 12.4595 73.2988 13.6221 74.1752C14.7847 75.0338 15.366 76.2142 15.366 77.7167C15.366 78.7362 15.1335 79.5947 14.6684 80.2923C14.2213 80.9898 13.6131 81.5264 12.844 81.902C12.0749 82.2776 11.2432 82.4654 10.3489 82.4654L10.8319 81.6606C11.905 81.6606 12.853 81.8484 13.6757 82.224C14.4985 82.5996 15.1514 83.154 15.6343 83.8874C16.1172 84.6028 16.3587 85.4971 16.3587 86.5703C16.3587 88.18 15.7505 89.4321 14.5343 90.3264C13.3359 91.2028 11.5473 91.641 9.16845 91.641H0.20752ZM2.89043 89.4678H9.06114C10.5457 89.4678 11.6814 89.2174 12.4684 88.7166C13.2554 88.2158 13.6489 87.4288 13.6489 86.3557C13.6489 85.2646 13.2554 84.4687 12.4684 83.9679C11.6814 83.4671 10.5457 83.2166 9.06114 83.2166H2.64897V81.0435H8.39041C9.74975 81.0435 10.805 80.7931 11.5562 80.2923C12.3075 79.7915 12.6831 79.0402 12.6831 78.0386C12.6831 77.037 12.3075 76.2858 11.5562 75.785C10.805 75.2842 9.74975 75.0338 8.39041 75.0338H2.89043V89.4678Z" fill="#FAFAFA"/>
<path d="M490.56 91.641V72.8606H497.884C499.53 72.8606 500.934 73.1199 502.096 73.6386C503.259 74.1573 504.153 74.9086 504.779 75.8923C505.405 76.876 505.718 78.0476 505.718 79.4069C505.718 80.7663 505.405 81.9378 504.779 82.9215C504.153 83.8874 503.259 84.6296 502.096 85.1483C500.934 85.667 499.53 85.9264 497.884 85.9264H492.035L493.243 84.6922V91.641H490.56ZM503.116 91.641L498.34 84.8264H501.211L506.04 91.641H503.116ZM493.243 84.9605L492.035 83.6459H497.804C499.521 83.6459 500.817 83.2792 501.694 82.5459C502.588 81.7947 503.035 80.7484 503.035 79.4069C503.035 78.0655 502.588 77.0281 501.694 76.2947C500.817 75.5614 499.521 75.1947 497.804 75.1947H492.035L493.243 73.8533V84.9605Z" fill="#FAFAFA"/>
<path d="M455.712 80.963H465.37V83.2435H455.712V80.963ZM455.953 89.3069H466.899V91.641H453.27V72.8606H466.524V75.1947H455.953V89.3069Z" fill="#FAFAFA"/>
<path d="M421.935 91.641V75.1947H415.496V72.8606H431.03V75.1947H424.591V91.641H421.935Z" fill="#FAFAFA"/>
<path d="M377.117 91.641V72.8606H379.317L391.739 88.2874H390.585V72.8606H393.268V91.641H391.068L378.646 76.2142H379.8V91.641H377.117Z" fill="#FAFAFA"/>
<path d="M342.268 80.963H351.927V83.2435H342.268V80.963ZM342.51 89.3069H353.456V91.641H339.827V72.8606H353.081V75.1947H342.51V89.3069Z" fill="#FAFAFA"/>
<path d="M309.519 91.8557C308.088 91.8557 306.764 91.6231 305.548 91.1581C304.35 90.6752 303.304 90.0045 302.409 89.1459C301.533 88.2695 300.844 87.25 300.343 86.0874C299.843 84.9248 299.592 83.6459 299.592 82.2508C299.592 80.8557 299.843 79.5769 300.343 78.4143C300.844 77.2517 301.542 76.2411 302.436 75.3826C303.33 74.5061 304.377 73.8354 305.575 73.3704C306.791 72.8875 308.115 72.646 309.546 72.646C310.995 72.646 312.327 72.8964 313.543 73.3972C314.777 73.8801 315.824 74.6045 316.682 75.5704L314.938 77.2606C314.223 76.5094 313.418 75.9549 312.524 75.5972C311.63 75.2216 310.673 75.0338 309.653 75.0338C308.598 75.0338 307.614 75.2126 306.702 75.5704C305.808 75.9281 305.03 76.4289 304.368 77.0728C303.706 77.7167 303.187 78.4858 302.812 79.3801C302.454 80.2565 302.275 81.2134 302.275 82.2508C302.275 83.2882 302.454 84.2541 302.812 85.1484C303.187 86.0248 303.706 86.785 304.368 87.4289C305.03 88.0728 305.808 88.5736 306.702 88.9313C307.614 89.289 308.598 89.4679 309.653 89.4679C310.673 89.4679 311.63 89.289 312.524 88.9313C313.418 88.5557 314.223 87.9833 314.938 87.2142L316.682 88.9045C315.824 89.8703 314.777 90.6036 313.543 91.1044C312.327 91.6053 310.986 91.8557 309.519 91.8557Z" fill="#FAFAFA"/>
<path d="M506.368 1.22974V9.47076H475.188V26.3776H503.819V34.2788H475.188V51.7803H506.368V60.0213H465.927V1.22974H506.368Z" fill="#FAFAFA"/>
<path d="M445.454 47.7872V1.22974H454.715V60.0213H442.905L416.228 13.4638V60.0213H406.968V1.22974H418.862L445.454 47.7872Z" fill="#FAFAFA"/>
<path d="M368.231 0.465088C377.152 0.465088 384.458 3.26873 390.236 8.96099C395.928 14.6532 398.817 21.7898 398.817 30.5406C398.817 39.2913 395.928 46.5128 390.236 52.2051C384.458 57.8973 377.152 60.7859 368.231 60.7859C359.396 60.7859 352.089 57.8973 346.397 52.2051C340.62 46.5128 337.731 39.2913 337.731 30.5406C337.731 21.7898 340.62 14.6532 346.397 8.96099C352.089 3.26873 359.396 0.465088 368.231 0.465088ZM368.231 8.96099C362.114 8.96099 357.102 11 353.109 14.9931C349.116 19.0711 347.161 24.2536 347.161 30.5406C347.161 36.8275 349.116 42.01 353.109 46.0881C357.102 50.251 362.114 52.2901 368.231 52.2901C374.433 52.2901 379.446 50.251 383.439 46.0881C387.432 42.01 389.386 36.8275 389.386 30.5406C389.386 24.2536 387.432 19.0711 383.439 14.9931C379.446 11 374.433 8.96099 368.231 8.96099Z" fill="#FAFAFA"/>
<path d="M236.033 29.9459L261.096 60.0213H250.306L226.433 31.1353V60.0213H217.172V1.22974H226.433V28.9264L250.391 1.22974H261.096L236.033 29.9459Z" fill="#FAFAFA"/>
<path d="M199.494 36.2328H209.01C207.905 43.5393 204.592 49.4864 199.069 53.9892C193.547 58.4921 186.92 60.7859 179.019 60.7859C170.183 60.7859 162.877 57.8973 157.185 52.2051C151.407 46.5128 148.519 39.2913 148.519 30.5406C148.519 21.7898 151.407 14.6532 157.185 8.96099C162.877 3.26873 170.183 0.465088 179.019 0.465088C186.92 0.465088 193.547 2.67402 199.069 7.17684C204.592 11.6797 207.905 17.6268 209.01 24.8483H199.494C197.37 15.3329 189.469 8.96099 179.019 8.96099C172.902 8.96099 167.889 11 163.896 14.9931C159.903 19.0711 157.949 24.2536 157.949 30.5406C157.949 36.8275 159.903 42.01 163.896 46.0881C167.889 50.251 172.902 52.2901 179.019 52.2901C184.202 52.2901 188.619 50.7608 192.358 47.7872C196.011 44.8137 198.39 40.9905 199.494 36.2328Z" fill="#FAFAFA"/>
<path d="M149.24 60.0213H139.214L134.542 47.3624H107.015L102.342 60.0213H92.402L115.171 1.22974H126.386L149.24 60.0213ZM120.778 10.2354L109.819 39.7161H131.738L120.778 10.2354Z" fill="#FAFAFA"/>
<path d="M62.3293 1.22974V51.7803H91.3853V60.0213H53.0688V1.22974H62.3293Z" fill="#FAFAFA"/>
<path d="M33.4738 29.691C40.6104 31.3052 45.1982 36.9975 45.1982 44.5588C45.1982 49.1466 43.7539 52.8848 40.7803 55.6884C37.8067 58.577 33.9836 60.0213 29.3108 60.0213H0V1.22974H26.6771C31.3499 1.22974 35.258 2.58908 38.2315 5.30776C41.2051 8.11141 42.7344 11.6797 42.7344 16.0976C42.7344 22.4695 39.1661 27.567 33.4738 29.691ZM33.6437 17.8817C33.6437 12.8691 29.9905 9.30084 24.893 9.30084H9.26053V26.7174H24.893C29.9905 26.7174 33.6437 22.9792 33.6437 17.8817ZM9.26053 51.9502H27.017C32.0295 51.9502 35.7677 48.212 35.7677 43.0295C35.7677 37.847 32.0295 34.1088 27.017 34.1088H9.26053V51.9502Z" fill="#FAFAFA"/>
<path fill-rule="evenodd" clip-rule="evenodd" d="M298.433 52.3226L292.063 60.0133H334.498V8.77763L304.002 45.5979H329V52.3226H298.433ZM288.629 51.2593V1.12061H330.005L323.22 9.34275L324.314 8.00913H293.747V14.7339H318.771L288.629 51.2593Z" fill="#FAFAFA"/>
</svg>
