<svg width="95" height="60" viewBox="0 0 95 60" fill="none" xmlns="http://www.w3.org/2000/svg">
<path d="M34.1651 29.0245C41.3017 30.6387 45.8895 36.3309 45.8895 43.8923C45.8895 48.4801 44.4451 52.2183 41.4716 55.0219C38.498 57.9105 34.6749 59.3548 30.0021 59.3548H0.691284V0.563232H27.3684C32.0411 0.563232 35.9493 1.92257 38.9228 4.64126C41.8964 7.44491 43.4256 11.0132 43.4256 15.431C43.4256 21.803 39.8574 26.9005 34.1651 29.0245ZM34.335 17.2152C34.335 12.2026 30.6818 8.63434 25.5843 8.63434H9.95181V26.0509H25.5843C30.6818 26.0509 34.335 22.3127 34.335 17.2152ZM9.95181 51.2837H27.7082C32.7208 51.2837 36.459 47.5455 36.459 42.363C36.459 37.1805 32.7208 33.4423 27.7082 33.4423H9.95181V51.2837Z" fill="#FAFAFA"/>
<path fill-rule="evenodd" clip-rule="evenodd" d="M58.315 51.6642L51.9455 59.3549H94.3799V8.11918L63.8846 44.9394H88.882V51.6642H58.315ZM48.5116 50.6009V0.462158H89.887L83.1019 8.68431L84.1965 7.35068H53.6295V14.0754H78.653L48.5116 50.6009Z" fill="#FAFAFA"/>
</svg>
